<svg xmlns="http://www.w3.org/2000/svg" aria-hidden="true" style="position:absolute;width:0;height:0;overflow:hidden">
  <defs>
    <symbol id="icon-courses-vector-up" viewBox="0 0 32 32">
      <path stroke-linecap="round" stroke-linejoin="round" stroke-width="2.08" d="M8 24 24 8M13.333 8H24v10.667"/>
    </symbol>
    <symbol id="icon-header-camera" viewBox="0 0 32 32">
      <path d="M21 17a4.997 4.997 0 0 1-5 5 5.002 5.002 0 0 1-5-5 4.998 4.998 0 0 1 8.536-3.536A4.998 4.998 0 0 1 21 17z"/>
      <path d="M4 8a4.003 4.003 0 0 0-4 4v12a4.003 4.003 0 0 0 4 4h24a4.003 4.003 0 0 0 4-4V12a4.003 4.003 0 0 0-4-4h-2.344a4 4 0 0 1-2.828-1.172l-1.656-1.656A4 4 0 0 0 18.344 4h-4.688a4 4 0 0 0-2.828 1.172L9.172 6.828A4 4 0 0 1 6.344 8H4zm1 4a.997.997 0 0 1-1-1 .997.997 0 0 1 1-1 .997.997 0 0 1 1 1 .997.997 0 0 1-1 1zm18 5a6.999 6.999 0 1 1-14 0 7.003 7.003 0 0 1 7-7 7.003 7.003 0 0 1 7 7z"/>
    </symbol>
    <symbol id="icon-hero-star" viewBox="0 0 32 32">
      <path stroke-linecap="round" stroke-linejoin="round" stroke-width="2.4" d="m16 2.667 4.12 8.347 9.213 1.347-6.667 6.493 1.573 9.173-8.24-4.333-8.24 4.333 1.573-9.173-6.667-6.493 9.213-1.347 4.12-8.347z"/>
    </symbol>
    <symbol id="icon-hero-vector" viewBox="0 0 32 32">
      <path d="M22.222 8 32 15.698l-9.778 7.698v-6.365H0v-2.667h22.222V7.999z"/>
    </symbol>
    <symbol id="icon-reviews-star" viewBox="0 0 32 32">
      <path stroke-linecap="round" stroke-linejoin="round" stroke-width="2.4" d="m16 3.2 3.955 7.899 8.845 1.274-6.4 6.145 1.51 8.681L16 23.098l-7.91 4.101 1.51-8.681-6.4-6.145 8.845-1.274L16 3.2z"/>
    </symbol>
		<symbol id="icon-logo" viewBox="0 0 233 32">
			<path d="M19.471 17.348h-13.192v12.649h-6.28v-29.997h21.368v5.24h-15.089v6.822h13.192v5.286z"></path>
			<path d="M32.201 25.66c3.569 0 5.376-2.259 5.376-6.776s-1.807-6.731-5.376-6.731c-3.569 0-5.376 2.214-5.376 6.731s1.807 6.776 5.376 6.776zM32.201 30.584c-7.183 0-11.43-4.789-11.43-11.701 0-7.048 4.382-11.701 11.43-11.701 6.957 0 11.294 4.608 11.294 11.701 0 7.048-4.382 11.701-11.294 11.701z"></path>
			<path d="M59.716 21.956h5.918c-0.632 5.15-4.834 8.629-10.21 8.629-6.054 0-10.21-4.021-10.21-11.972s4.156-11.43 10.391-11.43c5.783 0 9.713 3.298 10.074 8.538h-5.918c-0.316-2.304-1.988-3.659-4.201-3.659-2.485 0-4.518 1.581-4.518 6.415s2.033 7.183 4.337 7.183c2.304 0 4.111-1.31 4.337-3.704z"></path>
			<path d="M87.384 29.997h-5.557v-3.117c-1.536 2.53-3.84 3.704-6.912 3.704-4.427 0-7.545-3.298-7.545-8.177v-14.637h5.873v13.734c0 2.801 1.265 4.156 3.749 4.156 2.982 0 4.563-2.123 4.563-5.060v-12.83h5.828v22.227z"></path>
			<path d="M108.978 14.502h-5.647c-0.316-2.168-1.491-2.936-4.156-2.936-2.214 0-3.479 0.542-3.479 1.852s1.22 1.852 3.614 2.53c2.53 0.723 4.924 1.22 6.641 1.897 2.349 0.949 3.659 2.485 3.659 5.376 0 4.608-3.388 7.364-9.713 7.364-6.822 0-10.616-3.208-10.707-7.725h6.053c0 2.078 1.762 3.298 4.608 3.298 2.078 0 3.93-0.632 3.93-2.304 0-1.581-1.672-2.078-3.569-2.53-3.75-0.904-5.828-1.536-7.409-2.53-2.078-1.31-2.801-3.027-2.801-5.015 0-3.75 2.575-6.596 9.352-6.596 6.415 0 9.306 2.53 9.623 7.319z"></path>
			<path d="M117.412 29.997h-6.28v-6.099h6.28v6.099z"></path>
			<path d="M139.030 17.348h-13.192v12.649h-6.28v-29.997h21.368v5.24h-15.089v6.822h13.192v5.286z"></path>
			<path d="M147.494 29.997h-5.873v-22.227h5.512v2.665c1.943-2.982 4.201-3.253 6.596-3.253h0.768v6.008c-0.542-0.090-1.084-0.136-1.626-0.136-3.614 0-5.376 1.807-5.376 5.376v11.565z"></path>
			<path d="M168.495 21.549l0.045-2.44c-0.587 0.587-1.626 0.904-3.795 1.31-3.343 0.632-4.427 1.581-4.427 3.479 0 1.672 0.994 2.485 2.846 2.485 3.027 0 5.286-2.214 5.331-4.834zM174.413 29.997h-5.466c-0.181-0.542-0.316-1.31-0.361-1.988-1.4 1.536-3.75 2.575-6.731 2.575-5.060 0-7.409-2.485-7.409-6.099 0-6.415 4.292-7.138 10.21-7.951 2.936-0.407 3.75-0.994 3.75-2.53 0-1.446-1.446-2.304-3.75-2.304-2.665 0-3.75 1.31-4.021 3.298h-5.466c0.090-4.608 2.62-7.816 9.758-7.816 7.048 0 9.487 3.162 9.487 8.764v14.050z"></path>
			<path d="M208.808 29.997h-5.737v-13.463c0-2.665-1.4-4.563-3.479-4.563-2.168 0-3.75 2.033-3.75 4.744v13.282h-5.873v-13.372c0-3.569-0.949-4.472-3.524-4.472-2.349 0-3.569 1.446-3.569 4.337v13.508h-5.873v-22.227h5.512v3.253c1.491-2.936 3.569-3.84 6.506-3.84 3.027 0 4.472 0.949 6.189 3.524 1.22-2.44 3.208-3.524 6.008-3.524 4.472 0 7.59 3.253 7.59 7.409v15.405z"></path>
			<path d="M216.619 16.715h9.080c-0.090-3.298-2.259-4.879-4.563-4.879-2.349 0-4.292 1.807-4.518 4.879zM231.753 20.42h-15.315c0.181 3.343 2.078 5.512 4.969 5.512 1.897 0 3.569-0.949 3.976-2.485h6.054c-1.355 4.563-5.015 7.138-9.758 7.138-7.409 0-11.113-4.066-11.113-12.107 0-6.867 3.93-11.294 10.752-11.294s10.436 4.427 10.436 13.237z"></path>
		</symbol>
		<symbol id="icon-menu-close" viewBox="0 0 32 32">
			<path stroke-linejoin="round" stroke-linecap="round" stroke-miterlimit="4" stroke-width="3" d="M24 8l-16 16"></path>
			<path stroke-linejoin="round" stroke-linecap="round" stroke-miterlimit="4" stroke-width="3" d="M8 8l16 16"></path>
		</symbol>
		<symbol id="icon-menu-open" viewBox="0 0 47 32">
			<path stroke-linejoin="miter" stroke-linecap="round" stroke-miterlimit="4" stroke-width="2.9091" d="M8.538 5.333h36.553"></path>
			<path stroke-linejoin="miter" stroke-linecap="round" stroke-miterlimit="4" stroke-width="2.9091" d="M8.538 24.727h36.553"></path>
			<path stroke-linejoin="miter" stroke-linecap="round" stroke-miterlimit="4" stroke-width="2.9091" d="M19.668 15.030h25.423"></path>
		</symbol>
  </defs>
</svg>